<?xml version="1.0" encoding="UTF-8" standalone="no"?>
<!-- Created with Inkscape (http://www.inkscape.org/) -->
<svg
   xmlns:dc="http://purl.org/dc/elements/1.1/"
   xmlns:cc="http://creativecommons.org/ns#"
   xmlns:rdf="http://www.w3.org/1999/02/22-rdf-syntax-ns#"
   xmlns:svg="http://www.w3.org/2000/svg"
   xmlns="http://www.w3.org/2000/svg"
   xmlns:xlink="http://www.w3.org/1999/xlink"
   xmlns:sodipodi="http://sodipodi.sourceforge.net/DTD/sodipodi-0.dtd"
   xmlns:inkscape="http://www.inkscape.org/namespaces/inkscape"
   id="svg2"
   sodipodi:version="0.32"
   inkscape:version="0.46"
   width="604"
   height="348"
   version="1.0"
   sodipodi:docname="berimbau.svg"
   inkscape:output_extension="org.inkscape.output.svg.inkscape">
  <metadata
     id="metadata7">
    <rdf:RDF>
      <cc:Work
         rdf:about="">
        <dc:format>image/svg+xml</dc:format>
        <dc:type
           rdf:resource="http://purl.org/dc/dcmitype/StillImage" />
      </cc:Work>
    </rdf:RDF>
  </metadata>
  <defs
     id="defs5">
    <inkscape:perspective
       sodipodi:type="inkscape:persp3d"
       inkscape:vp_x="0 : 526.18109 : 1"
       inkscape:vp_y="0 : 1000 : 0"
       inkscape:vp_z="744.09448 : 526.18109 : 1"
       inkscape:persp3d-origin="372.04724 : 350.78739 : 1"
       id="perspective9" />
  </defs>
  <sodipodi:namedview
     inkscape:window-height="768"
     inkscape:window-width="1360"
     inkscape:pageshadow="2"
     inkscape:pageopacity="0.0"
     guidetolerance="10.0"
     gridtolerance="10.0"
     objecttolerance="10.0"
     borderopacity="1.0"
     bordercolor="#666666"
     pagecolor="#ffffff"
     id="base"
     showgrid="false"
     inkscape:zoom="1.2643631"
     inkscape:cx="302"
     inkscape:cy="221.64889"
     inkscape:window-x="0"
     inkscape:window-y="0"
     inkscape:current-layer="svg2" />
  <g
     id="g2389">
    <g
       transform="translate(6.7111111,-5.5925928)"
       id="g2386">
      <g
         id="g2414"
         transform="matrix(0.9993908,3.4899497e-2,-3.4899497e-2,0.9993908,3.86477,16.471061)">
        <path
           id="path2384"
           d="M 564.6963,249.08216 C 561.1213,248.10218 555.2713,245.89315 551.6963,244.17321 C 548.1213,242.45327 544.39727,241.04569 543.42068,241.04526 C 542.4441,241.04483 537.36898,239.01947 532.14265,236.54447 C 526.91632,234.06947 522.17816,232.04447 521.6134,232.04447 C 520.53852,232.04447 519.01505,231.37843 498.6963,222.02548 C 491.8213,218.86084 482.92177,215.10082 478.91956,213.66988 C 471.24059,210.92436 465.53006,208.25767 464.6963,207.02794 C 464.08562,206.12723 444.86349,197.32707 442.51082,196.87112 C 441.46756,196.66893 439.0499,198.61842 436.16579,201.98745 C 430.76807,208.29273 426.82139,210.82723 425.51915,208.82459 C 425.06132,208.12052 424.80138,201.92904 424.94151,195.06575 C 425.18254,183.26107 425.08827,182.56947 423.1963,182.26199 C 421.54759,181.99405 421.45977,182.11936 422.6963,182.9754 C 423.95564,183.84724 423.87542,184.01411 422.1963,184.0155 C 421.0963,184.01641 419.14576,183.73587 417.86177,183.39208 C 416.08879,182.91736 415.84825,182.5509 416.86177,181.86863 C 417.71175,181.29645 416.92549,181.17367 414.6963,181.53048 C 412.7713,181.83859 409.8463,181.66897 408.1963,181.15353 C 405.32207,180.25566 405.30111,180.20917 407.6963,180.04447 C 410.09435,179.87957 410.07397,179.83385 407.1963,178.92324 C 405.5463,178.4011 402.53161,178.21645 400.49699,178.5129 C 398.45583,178.8103 388.37057,177.69774 377.99699,176.03081 C 367.65661,174.36922 353.1213,172.09501 345.6963,170.97702 C 338.2713,169.85903 326.7963,168.06169 320.1963,166.98293 C 308.401,165.05501 253.81061,159.73585 234.1963,158.60329 C 228.6963,158.28571 216.5463,157.80594 207.1963,157.53712 C 197.8463,157.26831 182.9963,156.39864 174.1963,155.60453 C 165.3963,154.81042 150.88403,154.02204 141.94681,153.85258 C 133.00958,153.68312 125.69708,153.20697 125.69681,152.79447 C 125.69653,152.38197 124.6838,152.0761 123.4463,152.11476 C 121.4903,152.17586 121.43466,152.27897 123.02049,152.90387 C 124.0238,153.29922 118.87848,153.4368 111.58645,153.2096 L 98.328207,152.79652 L 102.03347,157.12527 C 104.07136,159.50609 106.22688,163.27438 106.82352,165.49925 C 107.42016,167.72412 108.76061,172.53933 109.80231,176.19971 C 110.844,179.86009 111.6963,183.76078 111.6963,184.86792 C 111.6963,188.20627 112.79617,190.04475 115.68794,191.54015 C 117.30198,192.3748 119.35866,194.94028 120.66876,197.75316 C 121.89611,200.38838 123.55113,203.27891 124.34658,204.17656 C 126.21596,206.2861 126.49617,213.37576 124.79136,215.42993 C 123.04627,217.53263 121.40011,216.46643 122.68497,214.06564 C 124.75438,210.19892 122.66189,206.12194 114.6158,198.34374 C 105.57535,189.60427 103.69938,185.7995 103.27682,175.34642 C 102.98782,168.19746 102.19812,165.31813 101.30346,168.15134 C 98.693177,176.41758 97.033757,179.47194 94.262026,181.11193 C 89.387336,183.99621 88.477286,185.11476 89.134926,187.41372 C 91.237746,194.76473 91.301016,194.58691 83.943663,202.00285 C 79.408168,206.57447 76.167339,209.04447 74.704542,209.04447 C 72.815137,209.04447 72.652373,208.80232 73.696296,207.54447 C 74.71892,206.31228 74.640974,206.04447 73.259724,206.04447 C 70.684128,206.04447 72.353515,204.27867 75.604071,203.56473 C 78.63907,202.89813 81.314843,200.55003 81.867541,198.06828 C 82.048356,197.25637 82.758796,195.98673 83.446296,195.24685 C 84.133796,194.50697 84.696296,191.49484 84.696296,188.55323 C 84.696296,183.37327 84.869499,183.03954 90.196296,177.95563 C 94.992387,173.37824 95.696297,172.21612 95.696297,168.87545 C 95.696297,164.41254 95.172677,164.16914 92.602096,167.43709 C 91.566976,168.75304 86.665532,171.9238 81.709998,174.48323 C 71.949789,179.52418 71.101569,180.5281 68.263456,190.39794 C 66.069498,198.02766 63.078962,201.04447 57.709632,201.04447 C 55.466967,201.04447 51.959012,201.75676 49.914177,202.62734 C 45.228915,204.62206 29.454027,206.22984 28.558099,204.80395 C 28.207091,204.24531 27.419591,204.09745 26.808099,204.47537 C 26.196608,204.85329 25.696296,204.73409 25.696296,204.21048 C 25.696296,202.75306 28.359486,202.04447 33.8371,202.04447 C 36.574577,202.04447 38.568252,201.64631 38.267489,201.15966 C 37.966727,200.67302 40.622629,199.96408 44.169494,199.58424 C 51.990378,198.7467 54.822546,196.75171 58.179483,189.71558 C 61.36678,183.035 72.61763,174.08138 80.821918,171.69633 C 86.569968,170.02532 91.706576,165.98715 91.682646,163.15811 C 91.652236,159.56537 90.387266,157.04447 88.614846,157.04447 C 87.598347,157.04447 86.284998,156.14447 85.696296,155.04447 C 85.107594,153.94447 84.021861,153.04447 83.283557,153.04447 C 81.171305,153.04447 79.467973,150.33921 80.175876,148.10881 C 80.600506,146.77092 81.586632,146.14056 83.063742,146.26281 C 84.297418,146.36491 86.689446,145.87573 88.379356,145.17575 C 91.355036,143.94318 91.422956,143.77413 90.533306,139.81457 C 89.263816,134.16448 90.360046,133.327 96.944207,134.91686 C 104.53983,136.75096 106.51436,136.52405 116.34659,132.68714 C 123.09546,130.05348 125.2711,128.74452 125.51138,127.17319 C 125.8704,124.82537 131.10907,120.04447 133.32269,120.04447 C 134.1328,120.04447 136.19634,120.76881 137.90832,121.65411 C 140.47289,122.9803 141.69046,123.06319 144.82248,122.12481 C 146.91328,121.49839 149.27978,120.04952 150.08137,118.9051 C 150.88295,117.76067 152.81174,116.70256 154.36755,116.55374 C 155.92336,116.40492 158.0125,115.9453 159.01007,115.53235 C 160.00764,115.11941 161.92377,115.28271 163.26813,115.89524 C 165.22707,116.7878 166.71674,116.61306 170.77046,115.01524 C 173.55238,113.91871 175.5472,113.4767 175.20338,114.03301 C 174.85957,114.58931 173.95638,115.04447 173.1963,115.04447 C 172.43622,115.04447 171.59147,115.40507 171.31908,115.84581 C 171.04668,116.28655 176.53263,115.13739 183.51006,113.29211 C 190.48749,111.44683 197.5463,109.68791 199.1963,109.38339 C 202.61193,108.75302 202.12109,108.75583 229.8485,109.20782 C 241.20722,109.39298 249.98222,109.21386 249.3485,108.80978 C 248.57465,108.31634 248.70527,108.07007 249.7463,108.05978 C 250.5988,108.05136 251.81723,108.5654 252.45392,109.20209 C 253.33074,110.07891 253.9873,110.04785 255.16069,109.07402 C 256.41422,108.03369 257.56599,108.02805 261.1963,109.04447 C 264.64315,110.00953 266.01128,110.02795 267.1005,109.12398 C 268.04068,108.3437 268.73104,108.29166 269.14995,108.96947 C 269.54261,109.60482 276.29297,109.97257 286.98898,109.94133 C 305.31445,109.8878 319.87503,110.77069 320.6963,111.9852 C 320.9713,112.39187 323.8963,113.1768 327.1963,113.72948 C 344.74615,116.6687 370.84223,123.22201 384.1963,128.04345 C 388.5963,129.63205 396.0213,132.13965 400.6963,133.61589 C 413.75232,137.73862 415.6963,138.47387 415.6963,139.28916 C 415.6963,139.70458 416.0338,140.04475 416.4463,140.04509 C 416.8588,140.04543 417.04682,137.89102 416.86411,135.25751 C 416.25505,126.47843 423.0707,111.31632 431.00316,103.80374 C 432.75939,102.14047 433.56427,101.13374 432.79179,101.56655 C 431.83031,102.10526 431.62264,101.97267 432.13343,101.14619 C 432.54381,100.48218 433.40084,100.12227 434.03794,100.3464 C 434.67504,100.57052 436.85547,99.453896 438.88335,97.865006 C 445.55511,92.637536 454.37343,89.374976 463.83198,88.634626 C 471.06115,88.068776 472.73059,88.221616 474.08198,89.573006 C 476.57553,92.066556 476.06264,92.762446 471.19307,93.492676 C 465.80684,94.300396 458.64868,99.395096 457.22926,103.43118 C 456.39886,105.79242 456.78768,107.26802 459.7208,112.88676 C 461.63233,116.5485 465.4082,121.91662 468.11163,124.8159 C 472.23793,129.24114 474.12054,130.4195 479.83955,132.1566 C 483.58647,133.29469 487.08338,134.07255 487.61045,133.88516 C 488.13752,133.69778 486.87364,131.67759 484.80183,129.39585 C 482.73002,127.11411 479.56974,122.96397 477.77898,120.17332 C 474.77231,115.48783 474.61218,114.82937 475.68723,111.57194 C 476.32753,109.63183 477.4055,108.04447 478.08272,108.04447 C 478.75995,108.04447 480.14229,107.43884 481.15459,106.69863 C 482.83576,105.46933 482.54412,105.19061 477.78656,103.47981 C 470.54119,100.87441 469.43639,99.232926 475.47578,100.04651 C 482.62813,101.01002 494.40991,107.6642 492.44412,109.62998 C 492.14867,109.92543 489.60916,110.33824 486.80077,110.54733 C 483.99237,110.75642 481.22501,111.21771 480.65108,111.57242 C 478.43434,112.94244 493.49451,134.51159 497.4463,135.6265 C 498.6838,135.97563 499.6963,136.83502 499.6963,137.53625 C 499.6963,140.06385 490.85488,140.81727 482.6963,138.9849 C 472.85448,136.77449 466.64607,132.5315 459.56301,123.17499 C 454.75309,116.82122 453.51688,114.24771 455.9463,115.64578 C 456.6338,116.04142 456.8963,116.03047 456.52963,115.62146 C 456.16297,115.21245 455.48797,114.82309 455.02963,114.75621 C 453.69231,114.56107 451.69749,110.04572 451.68265,107.18016 C 451.62923,96.869416 448.10244,97.683116 437.05602,110.55482 C 429.21108,119.69604 426.1557,126.2745 426.46412,133.35996 C 426.62609,137.08102 426.35333,138.95054 425.70678,138.55094 C 424.42176,137.75676 424.41406,141.06035 425.6963,143.04447 C 426.50192,144.29108 426.67702,144.20661 426.73281,142.54447 C 426.76973,141.44447 427.81119,144.4746 429.04716,149.2781 C 432.05171,160.95504 435.29693,165.41628 444.72839,170.83527 C 450.08455,173.91274 452.90324,174.97058 454.6963,174.57616 C 456.0713,174.27371 462.53522,173.73677 469.06058,173.38296 C 480.81671,172.74552 480.97989,172.70291 486.96298,168.70755 C 490.28395,166.48989 493.72003,163.35711 494.59871,161.74582 C 495.47738,160.13452 497.27126,157.18053 498.5851,155.18139 C 499.89894,153.18224 501.43515,150.1961 501.9989,148.54552 C 502.56265,146.89494 503.29515,145.31947 503.62668,145.04447 C 505.14856,143.78208 506.6963,134.19484 506.6963,126.03012 C 506.6963,114.38986 504.94745,113.99219 503.33386,125.26553 C 502.92094,128.15043 501.6963,128.54599 501.6963,125.79447 C 501.6963,124.37364 501.274,123.06114 500.75786,122.8778 C 500.24172,122.69447 499.51095,116.46947 499.13393,109.04447 C 498.49629,96.486626 498.58316,95.423746 500.37875,93.814696 C 502.13069,92.244776 502.51177,92.226916 504.50268,93.621406 C 505.70917,94.466466 506.6963,95.942356 506.6963,96.901166 C 506.6963,97.859986 507.13696,99.085126 507.67555,99.623716 C 508.21414,100.16231 509.61355,104.41481 510.78535,109.07372 C 512.52307,115.98263 512.81721,119.38827 512.38066,127.54447 C 511.80688,138.26475 508.01012,155.33064 505.35581,159.1202 C 504.46405,160.39337 500.02218,164.51474 495.48498,168.2788 C 489.57659,173.1804 485.71907,175.5634 481.89177,176.67602 C 478.95269,177.53044 476.69386,178.35802 476.87215,178.51509 C 477.05043,178.67217 481.2463,180.90656 486.1963,183.48042 C 491.1463,186.05427 498.3463,190.54516 502.1963,193.46018 C 506.0463,196.3752 513.4713,201.59951 518.6963,205.06977 C 523.9213,208.54002 530.1938,213.12303 532.6352,215.25424 C 535.07659,217.38544 539.80159,220.76075 543.1352,222.75491 C 550.53529,227.18164 552.6963,229.30164 552.6963,232.13458 C 552.6963,235.31409 559.03773,240.77847 567.39693,244.80206 C 571.41158,246.73445 574.6963,248.92952 574.6963,249.67999 C 574.6963,251.41246 572.77924,251.29785 564.6963,249.08216 z M 546.1505,233.30323 C 546.58498,232.17098 546.12781,231.0343 544.84336,230.05323 C 543.0009,228.64595 526.51209,217.77171 522.84346,215.54447 C 521.93752,214.99447 515.3463,210.2424 508.1963,204.98431 C 501.0463,199.72622 492.2713,193.4702 488.6963,191.08205 C 485.1213,188.6939 480.27064,185.45847 477.91706,183.89221 C 474.32779,181.50363 472.60501,181.04447 467.23216,181.04447 C 463.70905,181.04447 459.65068,181.49152 458.21357,182.0379 C 456.30601,182.76316 454.66871,182.64196 452.14847,181.58893 C 450.24978,180.79561 448.6963,179.95916 448.6963,179.73017 C 448.6963,179.50118 450.8338,179.4679 453.4463,179.65622 L 458.1963,179.99863 L 454.83149,178.52155 C 452.98084,177.70916 451.00561,177.04447 450.44209,177.04447 C 449.87856,177.04447 447.22347,175.69447 444.54188,174.04447 C 438.12195,170.09425 437.26228,170.26919 442.1963,174.5218 C 444.3963,176.41797 445.92765,177.98627 445.59931,178.00692 C 445.27097,178.02757 443.97538,177.15381 442.72023,176.06523 C 441.46509,174.97664 440.11936,174.28301 439.72973,174.52381 C 439.3401,174.76461 437.26068,173.07064 435.10881,170.75941 C 432.1948,167.62963 432.02573,167.30514 434.4463,169.48792 C 436.2338,171.09982 437.6963,171.96865 437.6963,171.41865 C 437.6963,170.07501 432.20249,164.87162 431.51243,165.56168 C 431.21256,165.86154 430.21149,164.9535 429.28783,163.54381 C 428.36416,162.13412 427.18924,161.23981 426.67689,161.55646 C 426.16455,161.87311 422.94484,160.31245 419.52199,158.08833 C 416.09914,155.86421 412.48811,154.04447 411.49746,154.04447 C 410.50682,154.04447 409.6963,153.60362 409.6963,153.06479 C 409.6963,151.58856 403.51711,148.71204 382.90768,140.59421 C 356.23954,130.08992 347.26581,127.42476 320.1963,121.96921 C 311.21505,120.15914 306.49171,119.96108 273.83228,120.02507 C 240.07136,120.09121 230.18057,120.61965 217.1963,123.05094 C 214.4463,123.56588 207.0213,124.20157 200.6963,124.4636 C 184.54094,125.13288 168.17549,128.91247 165.08606,132.68775 C 164.47542,133.43395 162.88805,134.04447 161.55856,134.04447 C 160.22908,134.04447 158.11673,134.76212 156.86446,135.63924 C 155.27439,136.75297 153.77451,136.99861 151.89196,136.45361 C 147.86847,135.28882 144.83538,135.72282 138.1963,138.41331 C 134.8963,139.75064 131.4088,141.10061 130.4463,141.41326 C 129.4838,141.7259 128.6963,142.92541 128.6963,144.07883 C 128.6963,145.23225 128.23047,147.04637 127.66112,148.11021 C 126.66493,149.9716 127.06992,150.04462 138.41112,150.04853 C 154.81166,150.05417 177.22114,151.36212 172.1963,152.02043 C 169.9963,152.30865 176.2963,152.55824 186.1963,152.57507 C 196.0963,152.5919 207.5713,153.12818 211.6963,153.76679 C 223.36224,155.57287 231.26547,156.30793 230.48641,155.51442 C 230.09597,155.11674 228.07097,154.60136 225.98641,154.36913 C 210.24983,152.61603 209.71861,152.29334 223.1963,152.67426 C 230.8963,152.89188 244.6213,153.98822 253.6963,155.11057 C 262.7713,156.23292 271.3213,157.13164 272.6963,157.10773 C 274.53026,157.07582 274.82373,157.30158 273.79784,157.95512 C 272.34359,158.88155 281.56323,159.79594 293.1963,159.87902 C 300.98684,159.93467 328.60806,162.95455 331.1963,164.03364 C 333.34957,164.93139 347.1511,166.86395 357.6963,167.74432 C 361.2713,168.04278 367.5713,168.88817 371.6963,169.62296 L 379.1963,170.95895 L 370.37762,170.44397 C 365.52735,170.16073 360.80235,169.65828 359.87762,169.3274 C 358.9529,168.99653 358.51124,169.07495 358.89616,169.50166 C 359.64061,170.32695 378.82491,174.02457 382.1963,173.99258 C 383.96904,173.97576 383.91223,173.81121 381.6963,172.54447 C 379.47641,171.27547 379.42039,171.11206 381.1963,171.08607 C 382.2963,171.06997 384.51789,171.74596 386.13316,172.58827 C 390.38895,174.80753 397.26039,176.26941 404.6963,176.53753 C 408.2713,176.66643 413.4463,177.28813 416.1963,177.91909 C 428.05787,180.64059 427.6963,180.66508 427.6963,177.14013 C 427.6963,174.27319 427.88719,174.07626 429.71697,175.05553 C 430.82833,175.65032 432.17156,175.86878 432.70191,175.541 C 433.2827,175.18205 433.4349,176.10146 433.08462,177.85286 C 432.59883,180.28184 432.88948,180.88423 434.84968,181.51099 C 437.14081,182.24357 437.12536,182.2796 434.1963,183.03458 L 431.1963,183.80784 L 434.6963,184.06806 L 438.1963,184.32828 L 434.25531,184.93638 C 430.32256,185.5432 430.31057,185.55913 428.52938,192.54447 C 427.44604,196.79307 427.04338,200.46964 427.50497,201.89824 C 428.21131,204.08437 428.46775,203.88037 431.10538,199.0342 C 433.29516,195.01084 433.65074,193.63435 432.65868,193.02122 C 431.76462,192.46866 432.10185,192.12208 433.76402,191.88526 C 435.27482,191.67001 437.6369,189.55534 440.17613,186.14478 C 442.94722,182.42279 444.29676,181.25765 444.51962,182.39478 C 444.69745,183.30211 445.14745,184.04579 445.51962,184.04741 C 445.8918,184.04903 446.22818,185.57897 446.26715,187.44728 C 446.31989,189.97576 445.97782,190.706 444.92916,190.30358 C 443.91386,189.91398 443.61473,190.42461 443.8583,192.13155 C 444.14532,194.14292 445.7045,195.04446 454.1963,198.10914 C 466.80221,202.65861 483.91213,210.10161 492.06018,214.58034 C 495.50725,216.47509 500.77304,218.88504 503.76194,219.93579 C 506.75084,220.98654 511.86341,223.04538 515.12321,224.51099 C 525.22258,229.05166 523.2982,227.38853 487.63939,200.75826 C 467.05036,185.38221 465.79531,184.27837 473.6963,188.49504 C 477.2713,190.40298 481.0963,192.81208 482.1963,193.84861 C 483.2963,194.88513 485.17371,196.25029 486.36832,196.88229 C 487.56294,197.51428 489.16615,198.65717 489.93101,199.42204 C 490.69588,200.1869 493.16446,201.75282 495.41674,202.90185 C 497.66903,204.05088 499.66725,205.45732 499.85723,206.02727 C 500.18757,207.01828 504.54206,210.10631 525.6963,224.3513 C 535.67959,231.07391 542.42374,234.92621 544.33931,235.00027 C 544.96797,235.02458 545.783,234.26091 546.1505,233.30323 z M 280.42727,158.38853 C 281.1043,158.11461 282.4543,158.09794 283.42727,158.35148 C 284.40024,158.60502 283.8463,158.82914 282.1963,158.84952 C 280.5463,158.8699 279.75024,158.66246 280.42727,158.38853 z M 61.751687,199.01483 C 62.809836,198.44852 64.305607,196.76102 65.075622,195.26483 C 66.605824,192.29153 68.775889,185.04447 68.136012,185.04447 C 67.916525,185.04447 66.715298,186.90549 65.46662,189.18007 C 61.370607,196.64133 60.798547,197.49653 59.046805,198.77744 C 56.940413,200.31767 58.982437,200.49688 61.751687,199.01483 z M 119.6963,197.66691 C 119.6963,197.45926 118.9088,196.67176 117.9463,195.91691 C 116.36024,194.67304 116.32487,194.70841 117.56874,196.29447 C 118.87511,197.96022 119.6963,198.48995 119.6963,197.66691 z M 88.503166,194.51801 C 88.195276,194.21012 87.63612,194.76512 87.260589,195.75134 C 86.717904,197.17654 86.832768,197.2914 87.820386,196.31114 C 88.503806,195.6328 88.811056,194.8259 88.503166,194.51801 z M 61.364826,189.37967 C 60.342326,188.35717 58.696296,190.17455 58.696296,192.32599 L 58.696296,194.48948 L 60.298295,192.20231 C 61.179394,190.94436 61.659333,189.67417 61.364826,189.37967 z M 87.996786,189.38515 C 87.185328,187.27053 86.694981,187.80824 86.711609,190.79447 C 86.722753,192.79586 86.96979,193.16082 87.619089,192.13515 C 88.109776,191.36003 88.279746,190.12253 87.996786,189.38515 z M 108.15849,187.29447 C 107.745,186.33197 107.07818,183.74447 106.67666,181.54447 C 105.99097,177.7874 105.93903,177.7379 105.82147,180.72937 C 105.69174,184.03038 107.17338,189.04447 108.27854,189.04447 C 108.62599,189.04447 108.57197,188.25697 108.15849,187.29447 z M 95.253597,179.62623 C 96.320347,178.8462 96.920107,177.93495 96.586387,177.60123 C 96.252667,177.26751 94.903377,177.89074 93.587956,178.9862 C 90.871186,181.24867 92.289466,181.79366 95.253597,179.62623 z M 472.42727,175.35148 C 471.4543,175.09794 470.1043,175.11461 469.42727,175.38853 C 468.75024,175.66246 469.5463,175.8699 471.1963,175.84952 C 472.8463,175.82914 473.40024,175.60502 472.42727,175.35148 z M 100.35858,163.79447 C 100.08117,163.10697 99.854187,163.66947 99.854187,165.04447 C 99.854187,166.41947 100.08117,166.98197 100.35858,166.29447 C 100.63599,165.60697 100.63599,164.48197 100.35858,163.79447 z M 260.61297,157.64638 C 259.89332,156.95883 233.74253,153.86177 232.43788,154.30958 C 231.75501,154.54397 235.9213,155.28887 241.6963,155.9649 C 247.4713,156.64094 252.6463,157.34988 253.1963,157.54032 C 254.61771,158.03249 261.11434,158.1254 260.61297,157.64638 z M 425.6963,157.44884 C 425.6963,155.43986 420.79175,150.61979 416.57152,148.48124 C 413.84943,147.10185 411.86326,145.58334 412.1578,145.10677 C 412.45234,144.63019 411.09327,143.29621 409.13765,142.14237 C 404.15039,139.19981 403.32968,139.57312 408.1963,142.57056 C 410.3963,143.92557 411.7857,145.03653 411.28385,145.03935 C 410.782,145.04216 408.26621,143.69358 405.6932,142.04248 C 403.1202,140.39139 399.9308,139.10033 398.60566,139.17345 C 397.28051,139.24658 392.3713,137.51103 387.6963,135.31667 C 374.19341,128.97866 349.81722,120.81759 337.6963,118.57683 C 335.7713,118.22096 331.48174,117.28415 328.16394,116.49504 C 315.1042,113.38887 284.67124,110.84263 287.6963,113.10923 C 288.9156,114.02281 288.82203,114.08986 287.1963,113.4675 C 283.70152,112.12963 269.47098,112.12953 266.24126,113.46735 C 263.64786,114.5416 262.38067,114.44782 257.6963,112.83501 C 253.42231,111.36349 250.07864,111.0165 242.6963,111.27842 C 237.4713,111.46379 232.5213,112.03825 231.6963,112.55498 C 230.8713,113.07172 224.1213,113.49976 216.6963,113.50619 C 209.2713,113.51262 204.5463,113.80812 206.1963,114.16286 C 208.8838,114.74066 208.75025,114.82016 204.91418,114.92616 C 202.55902,114.99123 199.13628,115.66945 197.3081,116.43331 C 195.47992,117.19717 192.68187,117.61194 191.09022,117.35502 C 188.76724,116.98005 188.49224,117.1126 189.6963,118.02686 C 190.87203,118.9196 190.43967,119.0315 187.6963,118.54447 C 184.95293,118.05744 184.52057,118.16934 185.6963,119.06208 C 186.90796,119.98211 186.66768,120.11654 184.4463,119.76143 C 182.9338,119.51964 181.6963,119.59956 181.6963,119.93903 C 181.6963,121.28876 175.43763,123.21114 171.04331,123.21114 C 165.37042,123.21114 160.62598,124.76494 162.59088,125.97932 C 164.30698,127.03992 167.86146,126.12073 167.05982,124.82365 C 166.70051,124.24227 167.22366,124.04912 168.32107,124.35799 C 169.35245,124.64827 171.25203,125.19053 172.54238,125.563 C 173.83272,125.93548 177.88272,125.52689 181.54238,124.65502 C 185.20203,123.78316 190.7838,122.80673 193.9463,122.48518 C 197.1088,122.16364 199.6963,121.53302 199.6963,121.0838 C 199.6963,119.89429 204.35915,119.20427 221.1963,117.90216 C 238.2583,116.58267 302.6335,116.6163 310.1963,117.94866 C 346.9271,124.41962 347.26434,124.50161 369.99905,132.48842 C 380.26314,136.09425 388.9837,139.04447 389.37806,139.04447 C 391.79882,139.04447 418.49774,151.41796 418.16453,152.38542 C 417.94497,153.0229 419.2123,154.51449 420.98082,155.70008 C 424.33767,157.95045 425.6963,158.45431 425.6963,157.44884 z M 172.96713,124.4403 C 173.29943,124.10801 174.16192,124.07249 174.8838,124.36136 C 175.68153,124.68058 175.44458,124.91754 174.27963,124.96552 C 173.22547,125.00894 172.63484,124.7726 172.96713,124.4403 z M 107.9463,151.38219 C 107.2588,151.10478 106.1338,151.10478 105.4463,151.38219 C 104.7588,151.6596 105.3213,151.88658 106.6963,151.88658 C 108.0713,151.88658 108.6338,151.6596 107.9463,151.38219 z M 118.8838,151.36136 C 118.16192,151.07249 117.29943,151.10801 116.96713,151.4403 C 116.63484,151.7726 117.22547,152.00894 118.27963,151.96552 C 119.44458,151.91754 119.68153,151.68058 118.8838,151.36136 z M 508.13795,145.54447 C 508.57891,143.65429 508.48947,142.91441 507.89617,143.54447 C 507.37826,144.09447 506.63957,145.89447 506.25465,147.54447 C 505.81369,149.43465 505.90313,150.17453 506.49643,149.54447 C 507.01434,148.99447 507.75303,147.19447 508.13795,145.54447 z M 94.696297,147.20523 C 94.696297,146.23979 89.015386,146.39204 88.023356,147.38408 C 87.660139,147.74729 89.012966,148.04447 91.029626,148.04447 C 93.046296,148.04447 94.696297,147.66681 94.696297,147.20523 z M 104.16951,146.4284 C 107.40809,143.18982 103.11294,140.5569 99.226787,143.39852 C 97.563827,144.6145 97.471167,145.06828 98.606487,146.43626 C 100.30345,148.48096 102.11952,148.4784 104.16951,146.4284 z M 114.8838,147.36136 C 114.16193,147.07249 113.29943,147.10801 112.96713,147.4403 C 112.63484,147.7726 113.22547,148.00894 114.27963,147.96552 C 115.44458,147.91754 115.68153,147.68058 114.8838,147.36136 z M 124.6963,144.50929 C 124.6963,143.23705 124.31091,143.17461 122.4463,144.14474 C 119.13702,145.8665 119.09799,146.04447 122.02963,146.04447 C 123.7605,146.04447 124.6963,145.50574 124.6963,144.50929 z M 416.25517,141.51267 C 415.18755,140.70516 413.86404,140.04447 413.31404,140.04447 C 412.76404,140.04447 413.18755,140.70516 414.25517,141.51267 C 415.32279,142.32017 416.6463,142.98086 417.1963,142.98086 C 417.7463,142.98086 417.32279,142.32017 416.25517,141.51267 z M 121.28975,140.04714 C 124.53835,138.9486 128.88191,137.12087 130.94209,135.98552 C 133.00227,134.85016 135.06477,134.15417 135.52542,134.43886 C 135.98607,134.72356 136.36297,134.34771 136.36297,133.60364 C 136.36297,132.04206 134.25867,132.68128 121.6963,138.0589 C 110.90912,142.67661 110.71564,143.62283 121.28975,140.04714 z M 96.198357,140.40531 C 97.527047,139.89544 97.594167,139.5951 96.530147,138.92062 C 94.457447,137.60674 92.696296,137.89332 92.696296,139.54447 C 92.696296,141.17329 93.611066,141.39814 96.198357,140.40531 z M 119.07974,137.43447 C 126.11023,133.86814 129.07954,131.97129 125.1963,133.52711 C 124.0963,133.96783 120.7213,135.16924 117.6963,136.19691 C 114.6713,137.22458 111.60528,138.28251 110.88292,138.54787 C 109.66943,138.99365 110.08495,141.04447 111.38876,141.04447 C 111.70469,141.04447 115.16564,139.41997 119.07974,137.43447 z M 425.35224,132.77544 C 425.07831,132.09841 424.87087,132.89447 424.89125,134.54447 C 424.91163,136.19447 425.13575,136.74841 425.38929,135.77544 C 425.64283,134.80247 425.62616,133.45247 425.35224,132.77544 z M 144.08487,131.97679 C 144.57358,131.53159 143.41274,131.25219 141.50522,131.3559 C 139.53651,131.46294 138.03541,132.07507 138.03332,132.77169 C 138.02942,134.07135 142.41847,133.49483 144.08487,131.97679 z M 155.1963,133.04447 C 155.97848,131.77887 154.65467,131.77887 152.6963,133.04447 C 151.40361,133.87987 151.43001,134.01596 152.88728,134.02916 C 153.81732,134.03758 154.85638,133.59447 155.1963,133.04447 z M 151.6963,129.54447 C 151.6963,127.93155 150.78034,127.69126 148.28383,128.64925 C 146.24854,129.43027 147.24022,131.04447 149.75532,131.04447 C 150.82286,131.04447 151.6963,130.36947 151.6963,129.54447 z M 425.07786,129.49253 C 425.41935,128.60261 425.25171,128.20121 424.68485,128.55155 C 424.14115,128.88757 423.6963,129.58595 423.6963,130.10349 C 423.6963,131.54192 424.41307,131.22495 425.07786,129.49253 z M 158.46713,127.85697 C 157.84906,126.00275 155.6963,125.69521 155.6963,127.46114 C 155.6963,128.33197 156.4088,129.04447 157.27963,129.04447 C 158.15047,129.04447 158.68484,128.51009 158.46713,127.85697 z M 136.6963,125.89651 C 136.6963,124.28354 133.52595,123.7033 132.61069,125.14875 C 131.20576,127.36754 131.52589,127.7997 134.1963,127.28922 C 135.5713,127.02637 136.6963,126.39965 136.6963,125.89651 z M 430.49069,117.77976 C 431.74213,115.45035 434.55034,111.59343 436.73117,109.20882 C 438.91199,106.82421 440.6963,104.70083 440.6963,104.4902 C 440.6963,103.17539 437.56707,105.73627 435.10283,109.06775 C 433.50424,111.22895 431.73246,113.00783 431.16554,113.02083 C 430.59862,113.03383 429.51216,114.50697 428.7512,116.29447 C 427.99023,118.08197 427.01456,120.30903 426.58305,121.24348 C 424.901,124.88598 428.28394,121.88735 430.49069,117.77976 z M 401.96713,179.4403 C 402.29942,179.10801 403.16192,179.07249 403.8838,179.36136 C 404.68153,179.68058 404.44458,179.91754 403.27963,179.96552 C 402.22547,180.00894 401.63484,179.77259 401.96713,179.4403 z"
           style="fill:#000000" />
        <path
           d="M 444.29992,122.19733 C 443.36796,122.8205 443.05444,122.9675 442.23547,123.78867 C 439.40714,126.62458 428.89337,145.95001 447.44622,114.13767 C 446.20128,116.07537 446.00472,118.35748 445.45715,120.52987 C 445.10203,122.31377 444.28371,123.93516 443.82653,125.68847 C 443.601,127.59968 443.20393,129.46024 442.78177,131.3354 C 442.55779,133.20082 441.90301,134.96074 441.52391,136.79316 C 441.1613,138.88101 441.12857,141.00573 441.09459,143.11883 C 440.89217,145.40299 441.55724,147.54196 442.20866,149.69326 C 442.31019,150.07309 442.41171,150.45291 442.51323,150.83273 L 433.10287,164.46085 C 433.02175,164.094 432.94064,163.72715 432.85952,163.3603 C 432.22857,161.10746 431.22388,158.90248 431.34131,156.5143 C 431.35071,154.36169 431.352,152.20448 431.55395,150.05935 C 431.79602,148.06442 432.38094,146.4918 432.77368,144.57747 C 433.07603,142.66565 433.80659,140.87621 433.80752,138.92416 C 433.93826,137.99785 434.07061,137.08586 434.39309,136.20173 C 434.59028,135.6611 434.94835,135.18838 435.1442,134.64726 C 435.25498,134.34117 435.2841,134.01143 435.35406,133.69351 C 435.53737,133.05336 435.80189,132.43501 435.93855,131.78331 C 436.27465,130.18054 436.2562,128.4877 437.05653,126.9955 C 440.93535,120.31047 443.88487,111.18386 451.1464,107.0647 L 444.29992,122.19733 z"
           id="path2406" />
        <path
           d="M 461.23477,121.87275 C 461.0307,124.72311 460.59156,127.54915 460.34792,130.39766 C 460.1334,132.79125 460.18037,135.19651 460.04838,137.59351 C 459.69943,139.81736 459.34305,142.03385 459.15532,144.27836 C 459.00021,146.49868 458.9914,148.72554 458.9817,150.95017 C 458.88145,153.1848 459.00918,155.37832 459.37808,157.58031 C 459.88119,159.50338 460.86064,161.27308 461.63927,163.10318 L 452.48116,176.94307 C 452.01594,176.02323 451.75241,175.06963 451.30947,174.14173 C 450.99157,173.47579 450.56089,172.86701 450.25204,172.19682 C 450.09549,171.85712 449.99549,171.49411 449.86722,171.14276 C 449.48126,168.87932 449.02783,166.6671 449.24019,164.35169 C 449.24081,162.10627 449.23609,159.85987 449.32647,157.61584 C 449.44486,155.35118 449.65072,153.09004 450.14879,150.87249 C 450.61793,148.51667 450.26593,146.07644 450.53158,143.68976 C 450.73003,140.88258 451.03458,138.08409 451.47634,135.30407 L 461.23477,121.87275 z"
           id="path2408" />
        <path
           d="M 481.3681,135.29497 C 481.30363,138.43126 481.32841,141.56863 481.33957,144.70534 C 481.34958,147.16301 481.3543,149.62069 481.35674,152.07837 C 481.39,153.62868 481.69747,155.21345 482.83249,156.33395 C 483.46362,156.84564 483.9824,157.4734 484.53611,158.0637 L 475.82637,172.23 C 475.27531,171.67948 474.83031,171.06235 474.22895,170.56499 C 472.64661,169.25193 471.89647,167.50487 471.62103,165.47842 C 471.62348,163.00499 471.62824,160.53156 471.6382,158.05814 C 471.64917,154.94761 471.67505,151.83637 471.60967,148.7263 L 481.3681,135.29497 z"
           id="path2410" />
      </g>
      <text
         xml:space="preserve"
         style="font-size:36px;font-style:normal;font-variant:normal;font-weight:normal;font-stretch:normal;text-align:start;line-height:125%;writing-mode:lr-tb;text-anchor:start;fill:#000000;fill-opacity:1;stroke:none;stroke-width:1px;stroke-linecap:butt;stroke-linejoin:miter;stroke-opacity:1;font-family:Fatboy Slim BLTC BRK;-inkscape-font-specification:Fatboy Slim BLTC BRK"
         id="text2420"
         sodipodi:linespacing="125%"
         transform="translate(-1.1185188,14.540746)"><textPath
           xlink:href="#path2424"
           id="textPath2429">Berimbau VCL</textPath></text>
      <path
         style="fill:none;fill-rule:evenodd;stroke:none;stroke-width:1px;stroke-linecap:butt;stroke-linejoin:miter;stroke-opacity:1"
         d="M 130.86667,126.53334 C 178.17766,108.80317 217.25245,107.54512 265.08889,105.28149 C 312.92533,103.01785 354.5265,123.49762 398.1926,138.83704"
         id="path2424"
         sodipodi:nodetypes="czc" />
    </g>
    <path
       sodipodi:nodetypes="ccssssssccsscccsccccccsscsssscscccccc"
       d="M 216.24239,99.475489 C 216.75684,99.561192 217.25751,99.555664 217.76119,99.432963 C 218.10862,99.219474 218.49796,99.100768 218.79067,98.808817 C 218.84713,98.770706 218.90904,98.739634 218.96004,98.694483 C 219.12045,98.552482 219.21474,98.294739 219.16693,98.375566 C 215.81313,104.04575 216.67918,102.63164 217.38788,101.37687 C 217.62782,100.95482 217.67662,100.4745 217.71205,99.99996 C 217.74097,99.447972 217.73717,98.894939 217.7365,98.342389 C 217.74877,97.886766 217.69768,97.424025 217.50347,97.008495 C 217.26942,96.629458 216.87135,96.435923 216.55346,96.144764 C 216.26462,95.821154 215.88298,95.744039 215.47174,95.693658 C 214.9408,95.628781 214.42426,95.652854 213.90162,95.750429 C 213.41548,95.831907 212.89898,95.920915 212.46514,96.166134 C 212.05314,96.299171 211.76009,96.519562 211.51743,96.875417 C 211.35162,97.232754 211.11687,97.589266 210.82267,97.855977 C 211.0058,97.542771 210.24121,98.802604 210.39899,98.531324 C 212.37301,95.137432 212.91726,93.983151 212.26445,95.351628 C 212.08649,95.828309 212.07564,96.342476 212.06004,96.844977 C 212.07982,97.291656 212.16738,97.742399 212.30986,98.166503 C 210.62149,100.85067 209.50084,102.76008 209.71235,98.628207 C 210.11666,96.903179 211.31086,95.403206 212.39062,94.00569 C 212.61937,93.676588 212.83503,93.335609 213.08841,93.026409 C 213.42163,92.737805 213.7775,92.537126 214.19692,92.391969 C 214.69488,92.226463 215.19776,92.089791 215.72092,92.030161 C 216.28111,91.948467 216.84459,91.956172 217.40677,92.024748 C 217.89519,92.102465 218.36792,92.228976 218.72076,92.600044 C 219.03838,92.940999 219.4993,93.126016 219.76589,93.52785 C 220.05001,93.959084 220.17248,94.475222 220.17034,94.991046 C 220.17198,95.547261 220.17596,96.103561 220.16556,96.659716 C 220.15065,97.154013 220.13972,97.657969 219.98366,98.132063 C 219.82272,98.497369 219.98384,98.158878 219.78829,98.496369 C 218.52649,100.67402 218.57974,101.59236 217.14761,102.62711 C 216.77015,102.84848 216.37889,103.06183 215.95102,103.16664 C 215.3947,103.2568 214.82834,103.22461 214.27498,103.12174 C 213.6175,102.94825 213.08023,102.6328 212.80904,101.97521 C 212.56583,101.19092 212.64464,100.39409 212.86388,99.609249 C 215.92593,95.486447 213.76885,97.934937 216.24239,99.475489 z"
       id="path2387"
       style="stroke:none" />
  </g>
</svg>
